<?xml version="1.0" encoding="utf-8"?>
<!-- Generator: Adobe Illustrator 28.1.0, SVG Export Plug-In . SVG Version: 6.00 Build 0)  -->
<svg version="1.1" id="Layer_1" xmlns="http://www.w3.org/2000/svg" xmlns:xlink="http://www.w3.org/1999/xlink" x="0px" y="0px"
	 viewBox="0 0 100 100" style="enable-background:new 0 0 100 100;" xml:space="preserve">
<style type="text/css">
	.st0{fill:#FFFFFF;}
</style>
<g>
	<g>
		<path class="st0" d="M-14.19,96.36 M29.73,35.21c0.14,0.21,0.38,0.7,0.73,1.07c3.36,3.44,6.93,6.6,11.28,8.78
			c2.42,1.21,4.77,1.26,7.2,0.03c4.95-2.49,9.37-5.69,13.31-9.58c0.94-0.93,1.89-1.83,0.46-3.13c0.27-0.17,0.41-0.28,0.57-0.35
			c4.38-2,8.04-4.98,10.69-8.92c2.29-3.41,4.07-7.16,5.96-10.83c1.13-2.2,2.05-4.52,3.06-6.78c-1.22,0.45-2.22,1.05-3.23,1.62
			c-4.19,2.39-8.42,4.72-12.57,7.18c-4.19,2.49-7.39,5.91-9.26,10.48c-1.33,3.25-2.63,6.5-3.95,9.75c-0.36,0.89-0.77,1.76-1.16,2.65
			c0.09,0.08,0.18,0.15,0.28,0.23c0.38-0.48,0.76-0.96,1.15-1.42c2.89-3.42,5.78-6.84,8.67-10.26c1.01-1.19,1.77-2.49,1.92-4.1
			c0.06-0.62,0.37-1.21,0.57-1.81c0.09,0.03,0.18,0.06,0.27,0.09c-0.22,1.12-0.43,2.24-0.7,3.59c3.79-2.51,6.16-6.27,9.99-8.31
			c-2.38,2.94-4.89,5.75-7.41,8.55c-2.26,2.51-4.49,5.05-6.79,7.52c-2.18,2.34-4.39,4.65-6.67,6.89c-0.43,0.42-1.24,0.62-1.88,0.63
			c-0.65,0.01-1.31-0.33-2.13-0.56c0.07-0.3,0.09-0.69,0.25-1.01c0.54-1.05,1.21-2.04,1.69-3.12c1.59-3.57,3.14-7.15,4.64-10.75
			c0.19-0.44,0.2-1.15-0.03-1.55c-1.88-3.27-3.8-6.53-5.78-9.74C49.39,9.67,47.82,7.34,46.25,5c-0.75-1.12-1.13-1.13-2.02-0.12
			c-0.49,0.56-0.95,1.16-1.33,1.79c-2.07,3.47-4,7.03-6.19,10.42c-2.8,4.33-4.81,9.21-8.61,12.88c-0.31,0.3-0.5,0.73-0.69,1.12
			c-0.44,0.91-0.39,1.69,0.75,2.17c0.46-0.53,0.95-1.03,1.37-1.59c4.43-5.76,7.97-12.09,11.53-18.4c0.95-1.69,2.03-3.3,3.06-4.94
			c0.21,0.08,0.42,0.16,0.62,0.24c-0.22,0.91-0.25,1.92-0.68,2.72c-2.42,4.53-4.82,9.07-7.45,13.48
			C34.55,28.28,32.15,31.59,29.73,35.21z M13.15,73.57c3.83,0.1,4.03-0.01,7.55,1.55c4.37,1.94,8.66,4.07,12.93,6.23
			c2.25,1.13,4.39,2.49,6.58,3.74c-0.05,0.11-0.1,0.22-0.16,0.33c-0.63-0.25-1.28-0.47-1.9-0.75c-4.61-2.06-9.23-4.1-13.82-6.21
			c-4.84-2.23-9.8-3-15.01-1.55c-0.37,0.1-0.85,0.25-1.16,0.12c-1.49-0.66-2.52,0.48-4.08,0.66c0.43,0.28,0.52,0.38,0.64,0.42
			c5.3,1.72,10.75,3.08,15.87,5.24c7.93,3.33,15.64,7.2,23.43,10.87c0.82,0.38,1.46,0.48,2.32,0.04c3.71-1.92,7.42-3.84,11.2-5.6
			c8.85-4.12,17.87-7.81,27.32-10.39c0.3-0.08,0.6-0.2,1.16-0.38c-1.66-0.77-3.11-1.31-4.41-2.08c-3.23-1.92-6.4-1.67-9.68-0.14
			c-3.85,1.81-7.85,3.33-11.61,5.31c-4.69,2.47-10,3.71-14.17,7.21c-0.26,0.22-0.99,0.23-1.26,0.02c-1.14-0.88-2.33-1.77-3.26-2.87
			c-4.4-5.2-8.7-10.48-13.08-15.69c-0.32-0.38-1.06-0.76-1.48-0.66c-3.76,0.89-7.51,1.82-11.21,2.9
			C14.87,72.15,14.05,72.99,13.15,73.57z M65.54,48.22c-0.64,0.44-0.99,0.69-1.35,0.93c-5.06,3.3-10.3,6.26-16.24,7.68
			c-1.45,0.35-3.12,0.49-4.53,0.12c-4.82-1.27-9.38-3.21-13.56-5.99c-1.41-0.94-2.9-1.77-4.39-2.67
			c-0.39,3.42,1.68,11.25,3.24,12.16c0.11-0.84,0.22-1.66,0.33-2.48c0.13-0.92,0.61-1.12,1.36-0.61c0.33,0.22,0.64,0.47,0.91,0.75
			c1.97,2.05,4.35,2.98,7.21,2.95c1.7-0.02,3.41,0.25,5.09,0.49c0.34,0.05,0.86,0.56,0.87,0.89c0.09,1.61,0.04,3.22,0.04,4.85
			c-0.45,0.06-0.85,0.12-1.41,0.2c1.06,0.83,1.96,1.54,3.18,2.5c-0.94,0.15-1.48,0.27-2.02,0.31c-1.23,0.1-2.46,0.16-3.69,0.22
			c-0.83,0.04-1.06,0.47-0.85,1.31c1.75,0.14,3.63-0.27,5.35,0.98c-0.77,0.21-1.38,0.38-2.07,0.56c1.73,1.24,1.73,1.24,1.8,3.48
			c0.03,0.92,0.06,1.85,0.07,2.77c0.01,0.91-0.04,1.77-1.5,1.36c1.49,1.67,1.92,1.84,3.47,0.83c1.43-0.93,2.78-2,4.03-3.15
			c2.85-2.62,5.66-5.32,7.42-8.83c1.65-3.29,3.24-6.63,4.62-10.05C64.41,56.18,65.27,52.41,65.54,48.22z M69.57,29.63
			c-0.51,0.72-0.76,1.08-1.02,1.43c-1.25,1.64-2.43,3.34-3.76,4.9c-3.93,4.61-8.78,8.05-14.08,10.91c-3.68,1.98-7.3,1.93-10.93-0.08
			c-0.42-0.23-0.87-0.43-1.28-0.68c-4.56-2.72-8.7-5.95-11.93-10.22c-2.01-2.66-1.84-4.16,0.76-6.22c0.33-0.26,0.63-0.56,1.27-1.14
			c-1.11-0.25-1.88-0.6-2.64-0.56c-2.73,0.13-4.73,1.51-5.95,3.94c-2.35,4.68-1.39,9.36,2.92,12.34c5.94,4.1,12.3,7.5,19.17,9.82
			c2,0.67,3.98,0.75,6.07,0.11c7.22-2.24,13.68-5.98,19.88-10.12c3.9-2.6,5.05-6.85,3.48-11.04C71.15,31.93,70.4,31.01,69.57,29.63z
			 M94.27,42.23c-0.1-0.09-0.21-0.19-0.31-0.28c-1.09,0.99-2.19,1.96-3.25,2.98c-3.25,3.14-6.39,6.4-9.76,9.39
			c-1.53,1.36-3.53,2.2-5.32,3.27c-0.45,0.27-0.97,0.45-1.36,0.79c-4.13,3.61-8.26,7.23-12.34,10.91c-0.62,0.56-0.95,1.44-1.37,2.2
			c-0.47,0.86-0.73,1.88-1.34,2.61c-2.47,2.97-5.04,5.86-7.57,8.78c-0.3,0.35-0.57,0.72-0.86,1.08c8.55-3.92,16.71-8.57,26.34-10.6
			c-2.93-3.23-7.09-3.19-10.59-4.99c2.42-2.2,4.86-4.42,7.12-6.47c0.81,0.36,1.43,0.7,2.09,0.92c0.83,0.28,1.7,0.44,2.54,0.7
			c1.71,0.52,2.91-0.13,3.58-2.18c-2.11-0.31-4.19-0.62-6.34-0.93c0.52-1.09,1.16-1.35,2.2-1.06c1.73,0.49,3.5,0.83,5.26,1.23
			c0.2,0.05,0.47,0.14,0.62,0.05c1.33-0.79,2.63-1.62,3.94-2.44c-0.04-0.14-0.09-0.28-0.13-0.42c-2.35-0.55-4.69-1.11-7.04-1.66
			c0.02-0.18,0.05-0.35,0.07-0.53c0.66,0,1.34-0.09,1.98,0.02c1.95,0.32,3.89,0.72,5.83,1.09c0.34,0.06,0.8,0.28,1.01,0.13
			c1.23-0.85,2.41-1.79,3.79-2.84c-2.89-0.61-5.5-1.17-8.11-1.72c0.03-0.18,0.06-0.36,0.09-0.54c3.23-0.2,6.34,1.17,9.71,1.09
			c-1.01-2.72-3.64-2.68-5.6-3.71C90.86,46.74,93.66,45.25,94.27,42.23z M82.96,49.86c0.12,0.08,0.23,0.15,0.35,0.23
			c1.05-1.02,2.63-1.87,3.03-3.1c0.63-1.92,0.47-4.1,0.65-6.21c-1.14,0.07-2.05,0.15-2.97,0.17c-0.8,0.02-1.07,0.43-1.06,1.17
			C82.97,44.7,82.96,47.28,82.96,49.86z M79.27,53.39c1.7-1.11,3.54-2.31,3.06-5.07c-0.15-0.85-0.03-1.75-0.03-2.62
			c0-1.06,0-2.12,0-3.52c-1.9,1.55-3.22,2.86-3.06,5.15C79.38,49.35,79.27,51.4,79.27,53.39z M75.46,56.66
			c0.42-0.33,0.77-0.67,1.17-0.92c1.35-0.82,1.82-1.97,1.69-3.55c-0.12-1.34,0.03-2.71,0.04-4.07c0.01-0.72,0-1.43,0-2.39
			c-0.82,0.68-1.42,1.12-1.95,1.62c-0.37,0.35-0.9,0.79-0.91,1.2C75.42,51.21,75.46,53.87,75.46,56.66z M74.32,49.51
			c-0.12-0.06-0.24-0.13-0.36-0.19c-0.54,0.62-1.14,1.19-1.62,1.86c-0.34,0.48-0.7,1.06-0.75,1.62c-0.15,1.57-0.15,3.15-0.19,4.73
			c-0.03,1.11,0.67,1.61,1.57,0.98c0.56-0.4,1.08-1.16,1.2-1.84c0.22-1.24,0.13-2.54,0.15-3.81C74.34,51.74,74.32,50.63,74.32,49.51
			z"/>
		<path d="M29.73,35.21c2.42-3.63,4.82-6.94,6.9-10.43c2.63-4.41,5.03-8.95,7.45-13.48c0.43-0.8,0.46-1.81,0.68-2.72
			c-0.21-0.08-0.42-0.16-0.62-0.24c-1.02,1.65-2.1,3.26-3.06,4.94c-3.56,6.31-7.1,12.64-11.53,18.4c-0.43,0.55-0.91,1.06-1.37,1.59
			c-1.14-0.48-1.19-1.26-0.75-2.17c0.19-0.39,0.38-0.83,0.69-1.12c3.8-3.67,5.8-8.55,8.61-12.88c2.19-3.39,4.12-6.95,6.19-10.42
			c0.38-0.64,0.84-1.23,1.33-1.79c0.88-1.01,1.26-1,2.02,0.12c1.57,2.33,3.14,4.66,4.62,7.06c1.98,3.21,3.9,6.46,5.78,9.74
			c0.23,0.4,0.21,1.1,0.03,1.55c-1.5,3.6-3.05,7.19-4.64,10.75c-0.48,1.08-1.15,2.07-1.69,3.12c-0.16,0.32-0.18,0.71-0.25,1.01
			c0.82,0.23,1.48,0.57,2.13,0.56c0.64-0.01,1.45-0.21,1.88-0.63c2.28-2.24,4.5-4.55,6.67-6.89c2.3-2.47,4.53-5.01,6.79-7.52
			c2.52-2.8,5.03-5.61,7.41-8.55c-3.83,2.04-6.2,5.8-9.99,8.31c0.26-1.35,0.48-2.47,0.7-3.59c-0.09-0.03-0.18-0.06-0.27-0.09
			c-0.2,0.6-0.51,1.2-0.57,1.81c-0.16,1.61-0.91,2.9-1.92,4.1c-2.89,3.42-5.78,6.84-8.67,10.26c-0.39,0.47-0.77,0.95-1.15,1.42
			c-0.09-0.08-0.18-0.15-0.28-0.23c0.39-0.88,0.79-1.75,1.16-2.65c1.32-3.25,2.63-6.5,3.95-9.75c1.87-4.57,5.07-7.99,9.26-10.48
			c4.15-2.46,8.38-4.79,12.57-7.18c1.01-0.58,2.01-1.18,3.23-1.62c-1.01,2.26-1.92,4.58-3.06,6.78c-1.89,3.66-3.67,7.42-5.96,10.83
			c-2.65,3.94-6.31,6.93-10.69,8.92c-0.16,0.07-0.29,0.18-0.57,0.35c1.42,1.3,0.48,2.2-0.46,3.13c-3.93,3.89-8.36,7.09-13.31,9.58
			c-2.43,1.22-4.79,1.17-7.2-0.03c-4.35-2.18-7.92-5.34-11.28-8.78C30.1,35.91,29.87,35.42,29.73,35.21z"/>
		<path d="M13.15,73.57c0.9-0.58,1.72-1.42,2.7-1.7c3.71-1.08,7.46-2.01,11.21-2.9c0.43-0.1,1.16,0.28,1.48,0.66
			c4.38,5.21,8.68,10.49,13.08,15.69c0.93,1.09,2.11,1.98,3.26,2.87c0.27,0.21,1,0.2,1.26-0.02c4.17-3.5,9.48-4.74,14.17-7.21
			c3.76-1.98,7.76-3.5,11.61-5.31c3.28-1.54,6.45-1.79,9.68,0.14c1.31,0.78,2.76,1.31,4.41,2.08c-0.56,0.18-0.85,0.3-1.16,0.38
			c-9.44,2.57-18.46,6.27-27.32,10.39c-3.78,1.76-7.5,3.68-11.2,5.6c-0.86,0.45-1.51,0.35-2.32-0.04
			c-7.79-3.67-15.5-7.53-23.43-10.87c-5.12-2.15-10.57-3.52-15.87-5.24c-0.11-0.04-0.21-0.13-0.64-0.42
			c1.56-0.18,2.59-1.32,4.08-0.66c0.31,0.14,0.78-0.01,1.16-0.12c5.21-1.45,10.17-0.68,15.01,1.55c4.59,2.11,9.21,4.15,13.82,6.21
			c0.62,0.28,1.27,0.5,1.9,0.75c0.05-0.11,0.1-0.22,0.16-0.33c-2.19-1.25-4.33-2.61-6.58-3.74c-4.27-2.15-8.56-4.29-12.93-6.23
			C17.18,73.57,16.97,73.68,13.15,73.57z"/>
		<path d="M65.54,48.22c-0.27,4.2-1.14,7.96-2.58,11.55c-1.38,3.41-2.97,6.75-4.62,10.05c-1.76,3.51-4.57,6.22-7.42,8.83
			c-1.26,1.15-2.61,2.23-4.03,3.15c-1.55,1.01-1.98,0.84-3.47-0.83c1.46,0.42,1.51-0.45,1.5-1.36c-0.01-0.92-0.04-1.85-0.07-2.77
			c-0.07-2.24-0.07-2.24-1.8-3.48c0.69-0.19,1.3-0.35,2.07-0.56c-1.71-1.25-3.6-0.84-5.35-0.98c-0.2-0.84,0.03-1.27,0.85-1.31
			c1.23-0.06,2.46-0.13,3.69-0.22c0.54-0.04,1.08-0.16,2.02-0.31c-1.22-0.96-2.12-1.67-3.18-2.5c0.56-0.08,0.96-0.14,1.41-0.2
			c0-1.62,0.05-3.24-0.04-4.85c-0.02-0.32-0.53-0.84-0.87-0.89c-1.69-0.24-3.4-0.51-5.09-0.49c-2.86,0.03-5.24-0.9-7.21-2.95
			c-0.27-0.28-0.59-0.54-0.91-0.75c-0.76-0.5-1.24-0.31-1.36,0.61c-0.11,0.82-0.22,1.63-0.33,2.48c-1.56-0.91-3.63-8.74-3.24-12.16
			c1.49,0.9,2.97,1.73,4.39,2.67c4.18,2.78,8.74,4.72,13.56,5.99c1.41,0.37,3.08,0.23,4.53-0.12c5.93-1.42,11.18-4.38,16.24-7.68
			C64.55,48.91,64.9,48.66,65.54,48.22z"/>
		<path d="M69.57,29.63c0.82,1.38,1.58,2.3,1.97,3.36c1.57,4.19,0.41,8.44-3.48,11.04c-6.21,4.15-12.67,7.89-19.88,10.12
			c-2.08,0.65-4.07,0.57-6.07-0.11c-6.88-2.32-13.23-5.72-19.17-9.82c-4.31-2.97-5.28-7.65-2.92-12.34
			c1.22-2.43,3.22-3.81,5.95-3.94c0.76-0.04,1.53,0.32,2.64,0.56c-0.64,0.58-0.94,0.88-1.27,1.14c-2.6,2.06-2.78,3.56-0.76,6.22
			c3.24,4.27,7.37,7.5,11.93,10.22c0.41,0.25,0.86,0.45,1.28,0.68c3.63,2.02,7.26,2.07,10.93,0.08c5.3-2.86,10.15-6.31,14.08-10.91
			c1.34-1.56,2.51-3.26,3.76-4.9C68.81,30.71,69.06,30.35,69.57,29.63z"/>
		<path d="M94.27,42.23c-0.61,3.02-3.41,4.51-5.11,6.86c1.95,1.04,4.58,1,5.6,3.71c-3.37,0.09-6.48-1.28-9.71-1.09
			c-0.03,0.18-0.06,0.36-0.09,0.54c2.61,0.55,5.22,1.11,8.11,1.72c-1.38,1.05-2.56,1.98-3.79,2.84c-0.21,0.14-0.67-0.07-1.01-0.13
			c-1.94-0.37-3.88-0.77-5.83-1.09c-0.64-0.11-1.32-0.02-1.98-0.02c-0.02,0.18-0.05,0.35-0.07,0.53c2.35,0.55,4.69,1.11,7.04,1.66
			c0.04,0.14,0.09,0.28,0.13,0.42c-1.31,0.82-2.62,1.65-3.94,2.44c-0.14,0.09-0.41-0.01-0.62-0.05c-1.76-0.4-3.53-0.74-5.26-1.23
			c-1.04-0.29-1.68-0.02-2.2,1.06c2.15,0.32,4.22,0.62,6.34,0.93c-0.67,2.04-1.86,2.7-3.58,2.18c-0.84-0.26-1.71-0.42-2.54-0.7
			c-0.66-0.22-1.29-0.56-2.09-0.92c-2.26,2.05-4.69,4.27-7.12,6.47c3.5,1.8,7.67,1.76,10.59,4.99c-9.62,2.02-17.79,6.67-26.34,10.6
			c0.28-0.36,0.56-0.73,0.86-1.08c2.53-2.92,5.1-5.81,7.57-8.78c0.61-0.73,0.87-1.75,1.34-2.61c0.41-0.76,0.75-1.64,1.37-2.2
			c4.07-3.68,8.21-7.29,12.34-10.91c0.39-0.34,0.91-0.52,1.36-0.79c1.79-1.07,3.78-1.91,5.32-3.27c3.38-2.99,6.51-6.26,9.76-9.39
			c1.06-1.02,2.17-1.99,3.25-2.98C94.07,42.04,94.17,42.14,94.27,42.23z"/>
		<path d="M82.96,49.86c0-2.58,0.01-5.16,0-7.74c0-0.74,0.26-1.15,1.06-1.17c0.92-0.02,1.84-0.1,2.97-0.17
			c-0.18,2.11-0.02,4.29-0.65,6.21c-0.41,1.23-1.98,2.08-3.03,3.1C83.19,50.01,83.08,49.94,82.96,49.86z"/>
		<path d="M79.27,53.39c0-1.98,0.11-4.03-0.03-6.06c-0.16-2.29,1.16-3.6,3.06-5.15c0,1.4,0,2.46,0,3.52c0,0.87-0.11,1.77,0.03,2.62
			C82.82,51.07,80.98,52.27,79.27,53.39z"/>
		<path d="M75.46,56.66c0-2.78-0.04-5.44,0.04-8.1c0.01-0.41,0.55-0.85,0.91-1.2c0.53-0.51,1.12-0.94,1.95-1.62
			c0,0.96,0.01,1.68,0,2.39c-0.02,1.36-0.16,2.72-0.04,4.07c0.14,1.57-0.34,2.73-1.69,3.55C76.22,55.98,75.88,56.32,75.46,56.66z"/>
		<path d="M74.32,49.51c0,1.12,0.01,2.23,0,3.35c-0.02,1.27,0.06,2.57-0.15,3.81c-0.12,0.67-0.63,1.44-1.2,1.84
			c-0.9,0.64-1.6,0.14-1.57-0.98c0.04-1.58,0.04-3.16,0.19-4.73c0.05-0.56,0.41-1.14,0.75-1.62c0.48-0.66,1.07-1.24,1.62-1.86
			C74.08,49.39,74.2,49.45,74.32,49.51z"/>
	</g>
</g>
</svg>
